# xmcd
#
# Track frame offsets:
#	150
#	19504
#	35504
#	47536
#	55997
#	94981
#	108780
#	124460
#	138706
#	151592
#	169298
#	182035
#	194504
#	204541
#	222949
#
# Disc length: 3163 seconds
#
# Revision: 2
# Processed by: cddbd v1.5.2PL0 Copyright (c) Steve Scherf et al.
# Submitted via: audiograbber 1.83.01
#
DISCID=d60c590f
DTITLE=New Riders Of The Purple Sage - Gypsy Cowboy
DYEAR=2007
DGENRE=Rock
TTITLE0=Gypsy Cowboy
TTITLE1=Whiskey
TTITLE2=Groupie
TTITLE3=Sutter's Mill
TTITLE4=Death And Destruction
TTITLE5=Linda
TTITLE6=On My Way Back Home
TTITLE7=Superman
TTITLE8=She's No Angel
TTITLE9=Long Black Veil
TTITLE10=Sailin'
TTITLE11=Groupie (Live)
TTITLE12=Sutter's Mill (Live)
TTITLE13=Superman (Live)
TTITLE14=She's No Angel (Live)
EXTD=Last 4 tracks are re-release from live album
EXTT0=
EXTT1=
EXTT2=
EXTT3=
EXTT4=
EXTT5=
EXTT6=
EXTT7=
EXTT8=
EXTT9=
EXTT10=
EXTT11=
EXTT12=
EXTT13=
EXTT14=
PLAYORDER=
